<?xml version="1.0" encoding="utf-8"?>
<!-- Generator: Adobe Illustrator 24.0.0, SVG Export Plug-In . SVG Version: 6.00 Build 0)  -->
<svg version="1.1" id="Ebene_1" xmlns="http://www.w3.org/2000/svg" xmlns:xlink="http://www.w3.org/1999/xlink" x="0px" y="0px"
	 viewBox="0 0 70.7 83.5" style="enable-background:new 0 0 70.7 83.5;" xml:space="preserve">
<title>05</title>
<path id="arrow" d="M35.4,70.5c1.7,0,3-1.3,3-3V24.7l17.9,16.8c1.2,1.1,3.1,1,4.2-0.2c1.1-1.2,1-3-0.1-4.2l-23-21.6l-0.1-0.1
	c-0.2-0.1-0.3-0.3-0.5-0.4l0,0c-0.5-0.2-1-0.3-1.4-0.3l0,0c-0.5,0-0.9,0.1-1.4,0.3l0,0c-0.2,0.1-0.4,0.2-0.5,0.4l-0.1,0.1l-23,21.6
	c-1.2,1.1-1.3,3-0.2,4.2s3,1.3,4.2,0.2c0,0,0.1,0,0.1-0.1l17.9-16.7v42.8C32.4,69.2,33.7,70.5,35.4,70.5z"/>
<path d="M67.1,76.7H3.6c-1.7,0-3,1.3-3,3s1.3,3,3,3h63.5c1.7,0,3-1.3,3-3S68.8,76.7,67.1,76.7z"/>
</svg>
